<svg width="50" height="50" viewBox="0 0 50 50" fill="none" xmlns="http://www.w3.org/2000/svg">
<path d="M26 45V29H23V24H26V21C26 17 28 14 32 14C34.903 14 37 15 37 15V19H35C32.855 19 32 19.504 32 21V24H37L36 29H32V45" stroke="#7F5AF0" stroke-width="2" stroke-miterlimit="10" stroke-linecap="round"/>
<path d="M9 45H41C43.209 45 45 43.209 45 41V9C45 6.791 43.209 5 41 5H9C6.791 5 5 6.791 5 9V41C5 43.209 6.791 45 9 45Z" stroke="#7F5AF0" stroke-width="2" stroke-miterlimit="10" stroke-linecap="round" stroke-linejoin="round"/>
</svg>
