<svg width="171" height="30" viewBox="0 0 171 30" fill="none" xmlns="http://www.w3.org/2000/svg">
<path d="M1.58026 24V5.81818H5.42436V20.8306H13.2191V24H1.58026ZM26.9953 5.81818H30.8394V17.6257C30.8394 18.9515 30.5228 20.1115 29.8895 21.1058C29.2621 22.1001 28.3832 22.8755 27.2528 23.4318C26.1223 23.9822 24.8054 24.2575 23.3021 24.2575C21.7929 24.2575 20.473 23.9822 19.3426 23.4318C18.2122 22.8755 17.3332 22.1001 16.7059 21.1058C16.0785 20.1115 15.7648 18.9515 15.7648 17.6257V5.81818H19.6089V17.2972C19.6089 17.9897 19.7599 18.6052 20.0617 19.1438C20.3695 19.6824 20.8015 20.1056 21.3579 20.4134C21.9142 20.7211 22.5623 20.875 23.3021 20.875C24.0479 20.875 24.6959 20.7211 25.2464 20.4134C25.8027 20.1056 26.2318 19.6824 26.5336 19.1438C26.8414 18.6052 26.9953 17.9897 26.9953 17.2972V5.81818ZM49.2099 5.81818V24H45.8896L37.9794 12.5565H37.8462V24H34.0021V5.81818H37.3757L45.2237 17.2528H45.3835V5.81818H49.2099ZM64.442 11.6953C64.3177 11.2633 64.1431 10.8815 63.9182 10.5501C63.6933 10.2127 63.4181 9.92862 63.0926 9.6978C62.773 9.46106 62.406 9.28054 61.9917 9.15625C61.5834 9.03196 61.1306 8.96982 60.6334 8.96982C59.7042 8.96982 58.8875 9.20064 58.1831 9.66229C57.4848 10.1239 56.9403 10.7957 56.5496 11.6776C56.159 12.5535 55.9637 13.6248 55.9637 14.8913C55.9637 16.1579 56.156 17.2351 56.5407 18.1229C56.9255 19.0107 57.47 19.6883 58.1743 20.1559C58.8786 20.6175 59.7101 20.8484 60.6689 20.8484C61.539 20.8484 62.2818 20.6945 62.8973 20.3867C63.5187 20.073 63.9922 19.6321 64.3177 19.0639C64.6492 18.4957 64.8149 17.824 64.8149 17.0487L65.5961 17.1641H60.9086V14.2699H68.517V16.5604C68.517 18.1584 68.1796 19.5315 67.5049 20.6797C66.8302 21.822 65.901 22.7038 64.7172 23.3253C63.5335 23.9408 62.1782 24.2486 60.6512 24.2486C58.9466 24.2486 57.4492 23.8728 56.159 23.1211C54.8688 22.3635 53.8626 21.2893 53.1405 19.8984C52.4244 18.5017 52.0663 16.8445 52.0663 14.9268C52.0663 13.4531 52.2794 12.1392 52.7055 10.9851C53.1376 9.82505 53.7413 8.84257 54.5166 8.03764C55.2919 7.23272 56.1945 6.62015 57.2243 6.19993C58.2542 5.77971 59.3698 5.5696 60.5713 5.5696C61.6011 5.5696 62.5599 5.72053 63.4477 6.02237C64.3355 6.3183 65.1227 6.73852 65.8092 7.28303C66.5017 7.82753 67.0669 8.47561 67.5049 9.22727C67.9429 9.97301 68.224 10.7957 68.3483 11.6953H64.442Z" fill="#7F5AF0"/>
<path d="M77.8498 24H71.4045V5.81818H77.9031C79.7319 5.81818 81.3062 6.18217 82.6261 6.91016C83.9459 7.63222 84.9609 8.67093 85.6712 10.0263C86.3873 11.3816 86.7454 13.0033 86.7454 14.8913C86.7454 16.7853 86.3873 18.4129 85.6712 19.7741C84.9609 21.1354 83.94 22.18 82.6083 22.908C81.2826 23.636 79.6964 24 77.8498 24ZM75.2486 20.7063H77.69C78.8263 20.7063 79.7822 20.5051 80.5575 20.1026C81.3388 19.6942 81.9247 19.0639 82.3153 18.2116C82.7119 17.3535 82.9102 16.2467 82.9102 14.8913C82.9102 13.5478 82.7119 12.4499 82.3153 11.5977C81.9247 10.7454 81.3417 10.118 80.5664 9.71555C79.7911 9.31309 78.8352 9.11186 77.6989 9.11186H75.2486V20.7063ZM89.593 24V5.81818H101.844V8.98757H93.4371V13.32H101.214V16.4893H93.4371V20.8306H101.88V24H89.593ZM104.208 8.98757V5.81818H119.141V8.98757H113.574V24H109.775V8.98757H104.208ZM121.6 24V5.81818H133.851V8.98757H125.444V13.32H133.221V16.4893H125.444V20.8306H133.887V24H121.6ZM152.95 12.1836H149.061C148.99 11.6805 148.845 11.2337 148.626 10.843C148.407 10.4465 148.126 10.1091 147.783 9.83097C147.439 9.55279 147.043 9.33972 146.593 9.19176C146.149 9.0438 145.667 8.96982 145.146 8.96982C144.205 8.96982 143.385 9.2036 142.687 9.67116C141.988 10.1328 141.447 10.8075 141.062 11.6953C140.678 12.5772 140.485 13.6484 140.485 14.9091C140.485 16.2053 140.678 17.2943 141.062 18.1761C141.453 19.058 141.997 19.7238 142.696 20.1737C143.394 20.6235 144.202 20.8484 145.119 20.8484C145.634 20.8484 146.111 20.7803 146.549 20.6442C146.993 20.508 147.386 20.3098 147.729 20.0494C148.073 19.783 148.357 19.4605 148.582 19.0817C148.813 18.7029 148.972 18.2708 149.061 17.7855L152.95 17.8033C152.849 18.6378 152.598 19.4427 152.195 20.218C151.799 20.9875 151.263 21.677 150.588 22.2866C149.919 22.8903 149.12 23.3697 148.191 23.7248C147.268 24.074 146.223 24.2486 145.057 24.2486C143.436 24.2486 141.986 23.8816 140.707 23.1477C139.435 22.4138 138.428 21.3514 137.689 19.9606C136.955 18.5697 136.588 16.8859 136.588 14.9091C136.588 12.9264 136.961 11.2396 137.706 9.84872C138.452 8.45786 139.464 7.39844 140.743 6.67045C142.021 5.93655 143.459 5.5696 145.057 5.5696C146.111 5.5696 147.087 5.71757 147.987 6.01349C148.892 6.30942 149.694 6.74148 150.393 7.30966C151.091 7.87192 151.659 8.56143 152.097 9.3782C152.541 10.195 152.825 11.1301 152.95 12.1836ZM155.014 8.98757V5.81818H169.946V8.98757H164.38V24H160.58V8.98757H155.014Z" fill="#72757E"/>
</svg>
