<svg width="197" height="30" viewBox="0 0 197 30" fill="none" xmlns="http://www.w3.org/2000/svg">
<path d="M27.5803 24V5.81818H31.4244V20.8306H39.2191V24H27.5803ZM52.9953 5.81818H56.8394V17.6257C56.8394 18.9515 56.5228 20.1115 55.8895 21.1058C55.2621 22.1001 54.3832 22.8755 53.2528 23.4318C52.1223 23.9822 50.8054 24.2575 49.3021 24.2575C47.7929 24.2575 46.473 23.9822 45.3426 23.4318C44.2122 22.8755 43.3332 22.1001 42.7059 21.1058C42.0785 20.1115 41.7648 18.9515 41.7648 17.6257V5.81818H45.6089V17.2972C45.6089 17.9897 45.7599 18.6052 46.0617 19.1438C46.3695 19.6824 46.8015 20.1056 47.3579 20.4134C47.9142 20.7211 48.5623 20.875 49.3021 20.875C50.0479 20.875 50.6959 20.7211 51.2464 20.4134C51.8027 20.1056 52.2318 19.6824 52.5336 19.1438C52.8414 18.6052 52.9953 17.9897 52.9953 17.2972V5.81818ZM75.2099 5.81818V24H71.8896L63.9794 12.5565H63.8462V24H60.0021V5.81818H63.3757L71.2237 17.2528H71.3835V5.81818H75.2099ZM90.442 11.6953C90.3177 11.2633 90.1431 10.8815 89.9182 10.5501C89.6933 10.2127 89.4181 9.92862 89.0926 9.6978C88.773 9.46106 88.406 9.28054 87.9917 9.15625C87.5834 9.03196 87.1306 8.96982 86.6334 8.96982C85.7042 8.96982 84.8875 9.20064 84.1831 9.66229C83.4848 10.1239 82.9403 10.7957 82.5496 11.6776C82.159 12.5535 81.9637 13.6248 81.9637 14.8913C81.9637 16.1579 82.156 17.2351 82.5407 18.1229C82.9255 19.0107 83.47 19.6883 84.1743 20.1559C84.8786 20.6175 85.7101 20.8484 86.6689 20.8484C87.539 20.8484 88.2818 20.6945 88.8973 20.3867C89.5187 20.073 89.9922 19.6321 90.3177 19.0639C90.6492 18.4957 90.8149 17.824 90.8149 17.0487L91.5961 17.1641H86.9086V14.2699H94.517V16.5604C94.517 18.1584 94.1796 19.5315 93.5049 20.6797C92.8302 21.822 91.901 22.7038 90.7172 23.3253C89.5335 23.9408 88.1782 24.2486 86.6512 24.2486C84.9466 24.2486 83.4492 23.8728 82.159 23.1211C80.8688 22.3635 79.8626 21.2893 79.1405 19.8984C78.4244 18.5017 78.0663 16.8445 78.0663 14.9268C78.0663 13.4531 78.2794 12.1392 78.7055 10.9851C79.1376 9.82505 79.7413 8.84257 80.5166 8.03764C81.2919 7.23272 82.1945 6.62015 83.2243 6.19993C84.2542 5.77971 85.3698 5.5696 86.5713 5.5696C87.6011 5.5696 88.5599 5.72053 89.4477 6.02237C90.3355 6.3183 91.1227 6.73852 91.8092 7.28303C92.5017 7.82753 93.0669 8.47561 93.5049 9.22727C93.9429 9.97301 94.224 10.7957 94.3483 11.6953H90.442Z" fill="#7F5AF0"/>
<path d="M103.85 24H97.4045V5.81818H103.903C105.732 5.81818 107.306 6.18217 108.626 6.91016C109.946 7.63222 110.961 8.67093 111.671 10.0263C112.387 11.3816 112.745 13.0033 112.745 14.8913C112.745 16.7853 112.387 18.4129 111.671 19.7741C110.961 21.1354 109.94 22.18 108.608 22.908C107.283 23.636 105.696 24 103.85 24ZM101.249 20.7063H103.69C104.826 20.7063 105.782 20.5051 106.558 20.1026C107.339 19.6942 107.925 19.0639 108.315 18.2116C108.712 17.3535 108.91 16.2467 108.91 14.8913C108.91 13.5478 108.712 12.4499 108.315 11.5977C107.925 10.7454 107.342 10.118 106.566 9.71555C105.791 9.31309 104.835 9.11186 103.699 9.11186H101.249V20.7063ZM115.593 24V5.81818H127.844V8.98757H119.437V13.32H127.214V16.4893H119.437V20.8306H127.88V24H115.593ZM130.208 8.98757V5.81818H145.141V8.98757H139.574V24H135.775V8.98757H130.208ZM147.6 24V5.81818H159.851V8.98757H151.444V13.32H159.221V16.4893H151.444V20.8306H159.887V24H147.6ZM178.95 12.1836H175.061C174.99 11.6805 174.845 11.2337 174.626 10.843C174.407 10.4465 174.126 10.1091 173.783 9.83097C173.439 9.55279 173.043 9.33972 172.593 9.19176C172.149 9.0438 171.667 8.96982 171.146 8.96982C170.205 8.96982 169.385 9.2036 168.687 9.67116C167.988 10.1328 167.447 10.8075 167.062 11.6953C166.678 12.5772 166.485 13.6484 166.485 14.9091C166.485 16.2053 166.678 17.2943 167.062 18.1761C167.453 19.058 167.997 19.7238 168.696 20.1737C169.394 20.6235 170.202 20.8484 171.119 20.8484C171.634 20.8484 172.111 20.7803 172.549 20.6442C172.993 20.508 173.386 20.3098 173.729 20.0494C174.073 19.783 174.357 19.4605 174.582 19.0817C174.813 18.7029 174.972 18.2708 175.061 17.7855L178.95 17.8033C178.849 18.6378 178.598 19.4427 178.195 20.218C177.799 20.9875 177.263 21.677 176.588 22.2866C175.919 22.8903 175.12 23.3697 174.191 23.7248C173.268 24.074 172.223 24.2486 171.057 24.2486C169.436 24.2486 167.986 23.8816 166.707 23.1477C165.435 22.4138 164.428 21.3514 163.689 19.9606C162.955 18.5697 162.588 16.8859 162.588 14.9091C162.588 12.9264 162.961 11.2396 163.706 9.84872C164.452 8.45786 165.464 7.39844 166.743 6.67045C168.021 5.93655 169.459 5.5696 171.057 5.5696C172.111 5.5696 173.087 5.71757 173.987 6.01349C174.892 6.30942 175.694 6.74148 176.393 7.30966C177.091 7.87192 177.659 8.56143 178.097 9.3782C178.541 10.195 178.825 11.1301 178.95 12.1836ZM181.014 8.98757V5.81818H195.946V8.98757H190.38V24H186.58V8.98757H181.014Z" fill="#FFFFFE"/>
<path d="M26 10.5408V16.2513C26 18.3813 24.2682 20.1129 22.1379 20.1129H12.3713C11.4036 20.1129 10.5446 19.6455 10.0064 18.9263C9.63723 18.433 9.41817 17.8225 9.41817 17.1602C9.41817 15.5873 10.6584 14.2955 12.2126 14.2144C12.2954 12.6587 13.5856 11.4204 15.1605 11.4204C16.7888 11.4204 18.1136 12.7449 18.1136 14.3713V17.9881H16.8061V14.3713C16.8061 13.4659 16.0678 12.7277 15.1605 12.7277C14.2549 12.7277 13.5149 13.4659 13.5149 14.3713C13.5149 14.5076 13.5321 14.6421 13.5649 14.7732C13.6218 14.9957 13.5563 15.2302 13.3924 15.3941C13.2303 15.5562 12.9957 15.6218 12.7732 15.5648C12.6421 15.5321 12.5075 15.5166 12.3713 15.5166C11.4657 15.5166 10.7257 16.2547 10.7257 17.1602C10.7257 18.0674 11.4657 18.8056 12.3713 18.8056H22.1379C23.5471 18.8056 24.6925 17.6586 24.6925 16.2513V11.1944H17.4598C17.0976 11.1944 16.8061 10.9012 16.8061 10.5408V5.86163C16.8061 4.45426 15.659 3.30733 14.2497 3.30733H9.19392V10.5408C9.19392 10.9012 8.90068 11.1944 8.54017 11.1944H3.86214C2.45286 11.1944 1.3075 12.3396 1.3075 13.7487V18.8056H8.54017C8.71957 18.8056 8.88344 18.878 9.00246 18.997C9.11975 19.116 9.19392 19.2781 9.19392 19.4592V24.1367C9.19392 25.5475 10.3393 26.6927 11.7468 26.6927H16.8061V20.9459H18.1136V27.3463C18.1136 27.7068 17.8203 28 17.4598 28H11.7468C9.61826 28 7.88642 26.2667 7.88642 24.1367V20.1129H0.653752C0.29324 20.1129 0 19.8197 0 19.4592V13.7487C0 11.6204 1.73184 9.8871 3.86214 9.8871H7.88642V2.65367C7.88642 2.29148 8.17793 2 8.54017 2H14.2497C16.38 2 18.1136 3.73161 18.1136 5.86163V9.8871H25.3463C25.7085 9.8871 26 10.1786 26 10.5408Z" fill="#7F5AF0"/>
</svg>
