<svg width="40" height="40" viewBox="0 0 40 40" fill="none" xmlns="http://www.w3.org/2000/svg">
<path d="M40 13.1396V21.925C40 25.202 37.3356 27.866 34.0582 27.866H19.0327C17.544 27.866 16.2224 27.1469 15.3944 26.0405C14.8265 25.2816 14.4895 24.3423 14.4895 23.3234C14.4895 20.9035 16.3975 18.9161 18.7886 18.7914C18.9159 16.398 20.9009 14.4929 23.3238 14.4929C25.829 14.4929 27.867 16.5307 27.867 19.0328L27.8671 25.8547H25.8555L25.8555 19.0328C25.8555 17.6398 24.7197 16.5041 23.3238 16.5041C21.9306 16.5041 20.7921 17.6398 20.7921 19.0328C20.7921 19.2425 20.8187 19.4494 20.8691 19.6511C20.9567 19.9934 20.8558 20.3542 20.6037 20.6063C20.3543 20.8557 19.9934 20.9566 19.651 20.869C19.4493 20.8186 19.2424 20.7947 19.0327 20.7947C17.6395 20.7947 16.501 21.9304 16.501 23.3234C16.501 24.7191 17.6395 25.8547 19.0327 25.8547H34.0582C36.2264 25.8547 37.9885 24.0902 37.9885 21.925V14.1453H26.8613C26.304 14.1453 25.8555 13.6942 25.8555 13.1396V5.94097C25.8555 3.77579 24.0908 2.01128 21.9226 2.01128H14.1445V13.1396C14.1445 13.6942 13.6934 14.1453 13.1387 14.1453H5.94175C3.77363 14.1453 2.01154 15.9071 2.01154 18.075V25.8547H13.1387C13.4147 25.8547 13.6668 25.9662 13.8499 26.1493C14.0304 26.3323 14.1445 26.5818 14.1445 26.8604V34.0564C14.1445 36.2269 15.9066 37.9887 18.0721 37.9887H25.8555L25.8555 27.866H27.8671L27.867 38.9944C27.867 39.5489 27.4159 40 26.8613 40H18.0721C14.7973 40 12.133 37.3333 12.133 34.0564V27.866H1.00577C0.451138 27.866 0 27.4149 0 26.8604V18.075C0 14.8007 2.66437 12.134 5.94175 12.134H12.133V1.00564C12.133 0.448427 12.5814 0 13.1387 0H21.9226C25.2 0 27.867 2.66402 27.867 5.94097V12.134H38.9942C39.5515 12.134 40 12.5824 40 13.1396Z" fill="#7F5AF0"/>
<rect x="13.8461" y="1.53845" width="10.7692" height="1.53846" fill="#7F5AF0"/>
<rect x="27.6924" y="13.8461" width="9.23077" height="12.3077" fill="#7F5AF0"/>
<rect x="36.9231" y="13.8461" width="1.53846" height="10.7692" fill="#7F5AF0"/>
<rect x="26.1539" y="13.8461" width="7.69231" height="4.61538" fill="#7F5AF0"/>
<circle cx="26.1538" cy="15.3845" r="1.53846" fill="#7F5AF0"/>
<rect x="13.8461" y="26.1539" width="12.3077" height="10.7692" fill="#7F5AF0"/>
<rect x="15.3846" y="35.3846" width="12.3077" height="3.07692" fill="#7F5AF0"/>
<rect x="3.0769" y="13.8461" width="12.3077" height="12.3077" fill="#7F5AF0"/>
<rect x="1.53845" y="15.3846" width="3.07692" height="10.7692" fill="#7F5AF0"/>
<rect x="15.3846" y="15.3846" width="3.07692" height="4.61538" fill="#7F5AF0"/>
<ellipse cx="16.1538" cy="16.923" rx="3.84615" ry="3.07692" fill="#7F5AF0"/>
<circle cx="15.3845" cy="20" r="1.53846" fill="#7F5AF0"/>
<circle cx="20" cy="15.3845" r="1.53846" fill="#7F5AF0"/>
<rect x="13.8461" y="3.0769" width="12.3077" height="12.3077" fill="#7F5AF0"/>
</svg>
